<svg xmlns="http://www.w3.org/2000/svg" viewBox="0 0 621 579" role="img" aria-label="A. B. Electrical &amp; Maintenance"><path d="M 66.544 241.222 C 65.240 244.125, 59.685 257.075, 54.200 270 C 48.714 282.925, 38.550 306.861, 31.613 323.192 C 24.676 339.523, 19 353.147, 19 353.467 C 19 353.788, 26.076 353.927, 34.723 353.775 L 50.447 353.500 54.845 342.232 L 59.244 330.964 82.317 331.232 L 105.390 331.500 109.838 342.750 L 114.286 354 130.143 354 C 142.180 354, 145.992 353.699, 145.966 352.750 C 145.947 352.063, 135.019 325.625, 121.680 294 L 97.428 236.500 83.171 236.222 L 68.915 235.945 66.544 241.222 M 212 295 L 212 354 240.250 353.983 C 270.682 353.964, 277.608 353.183, 287.335 348.675 C 292.459 346.300, 298.618 341.040, 301.597 336.492 C 303.603 333.430, 305.973 324.493, 305.988 319.932 C 306.029 307.610, 297.866 297.206, 284.500 292.543 C 282.666 291.904, 282.749 291.716, 285.500 290.281 C 298.146 283.687, 303.524 271.195, 299.572 257.598 C 296.555 247.222, 286.720 239.602, 272.980 236.996 C 270.091 236.448, 255.188 236, 239.864 236 L 212 236 212 295 M 240.432 260.318 C 240.154 261.042, 240.055 266.330, 240.213 272.068 L 240.500 282.500 251.500 282.442 C 263.622 282.379, 267.565 281.120, 270.719 276.306 C 273.113 272.653, 272.808 266.489, 270.091 263.597 C 266.966 260.271, 261.578 259, 250.603 259 C 243.528 259, 240.802 259.353, 240.432 260.318 M 79.642 275.693 C 70.045 301.051, 68.004 306.584, 68.002 307.250 C 68 308.096, 95.368 308.299, 96.208 307.459 C 96.681 306.985, 83.602 270.269, 82.604 269.270 C 82.392 269.059, 81.059 271.949, 79.642 275.693 M 240.487 305.174 C 240.182 305.967, 240.061 311.990, 240.217 318.558 L 240.500 330.500 252 330.420 C 258.325 330.376, 265.173 329.784, 267.217 329.104 C 272.787 327.250, 276 322.876, 276 317.146 C 276 307.632, 271.280 304.948, 253.270 304.223 C 243.215 303.819, 240.942 303.988, 240.487 305.174 M 163.830 325.027 C 158.808 327.680, 155.776 332.276, 155.218 338.081 C 154.842 341.999, 155.241 343.736, 157.343 347.323 C 160.549 352.794, 165.603 355.489, 172.557 355.439 C 189.457 355.315, 195.246 334.822, 181.078 325.274 C 176.771 322.371, 169.066 322.261, 163.830 325.027 M 324.411 324.833 C 317.615 329.105, 314.207 336.341, 315.947 342.804 C 317.381 348.128, 320.528 351.881, 325.421 354.104 C 330.767 356.532, 334.972 356.473, 340.274 353.897 C 348.347 349.975, 351.691 341.716, 348.543 333.474 C 346.030 326.892, 341.333 323.668, 333.630 323.235 C 328.866 322.968, 326.812 323.324, 324.411 324.833 M 182.500 396.748 C 171.376 400.761, 164.994 407.649, 162.305 418.546 C 160.946 424.054, 160.837 426.419, 161.707 431.501 C 162.293 434.920, 163.594 439.449, 164.598 441.566 C 166.995 446.616, 172.870 452.229, 178.764 455.099 C 182.663 456.998, 185.178 457.414, 193 457.453 C 200.889 457.492, 203.178 457.134, 206.500 455.342 C 208.700 454.154, 211.757 451.860, 213.292 450.243 L 216.085 447.302 212.609 444.651 C 208.583 441.580, 206.785 441.349, 204.872 443.655 C 200.066 449.450, 186.311 449.208, 179.680 443.212 C 176.032 439.913, 173.670 433.785, 173.623 427.500 C 173.566 419.788, 175.249 415.015, 179.489 410.870 C 185.908 404.593, 194.570 403.335, 202.464 407.532 C 207.726 410.330, 209.570 410.151, 212.989 406.512 C 215.885 403.430, 214.965 402.108, 207.319 398.368 C 200.099 394.835, 189.685 394.156, 182.500 396.748 M 371.286 396.391 C 356.129 401.343, 348.101 413.189, 349.228 428.941 C 349.773 436.566, 352.363 443.066, 356.924 448.261 C 367.038 459.780, 389.396 461.233, 400.282 451.078 L 404.365 447.270 400.096 444.445 C 397.181 442.516, 395.423 441.918, 394.554 442.560 C 389.238 446.486, 387.431 447.241, 382.233 447.713 C 377.547 448.137, 375.578 447.825, 372.255 446.130 C 366.917 443.407, 363.348 438.660, 361.890 432.343 C 360.364 425.731, 361.407 419.326, 364.911 413.802 C 370.866 404.412, 385.067 402.044, 392.677 409.172 L 394.854 411.212 398.927 407.938 C 401.167 406.138, 403 404.456, 403 404.200 C 403 403.081, 398.133 399.568, 394 397.705 C 388.337 395.151, 377.074 394.500, 371.286 396.391 M 19.414 396.917 C 19.187 397.146, 19 410.722, 19 427.086 L 19 456.838 39.500 456.891 L 60 456.944 60 451.972 L 60 447 45 447 L 30 447 30 438.500 L 30 430 43.500 430 L 57 430 57 425.500 L 57 421 43.500 421 L 30 421 30 413.500 L 30 406 44 406 L 58 406 58 401.542 L 58 397.084 38.914 396.792 C 28.417 396.631, 19.642 396.688, 19.414 396.917 M 71.017 396.828 C 70.358 397.047, 70 407.686, 70 427.083 L 70 457 88 457 L 106 457 106 452 L 106 447 93.500 447 L 81 447 81 422.101 L 81 397.201 76.517 396.845 C 74.052 396.649, 71.577 396.641, 71.017 396.828 M 113.418 396.917 C 113.188 397.146, 113 410.758, 113 427.167 L 113 457 133.500 457 L 154 457 154 452 L 154 447 139 447 L 124 447 124 438.500 L 124 430 137.500 430 L 151 430 151 425.500 L 151 421 137.500 421 L 124 421 124 413.500 L 124 406 138.500 406 L 153 406 153 401.500 C 153 397.521, 152.740 396.992, 150.750 396.931 C 139.918 396.597, 113.748 396.587, 113.418 396.917 M 222.678 396.823 C 221.411 397.067, 221 398.223, 221 401.536 L 221 405.925 230.250 406.212 L 239.500 406.500 239.767 431.802 L 240.035 457.103 245.267 456.802 L 250.500 456.500 250.767 431.250 L 251.034 406 260.017 406 L 269 406 269 401.500 C 269 399.025, 268.663 396.991, 268.250 396.980 C 258.033 396.706, 223.895 396.589, 222.678 396.823 M 275.356 397.512 C 275.143 398.069, 275.088 411.569, 275.234 427.512 L 275.500 456.500 280.750 456.619 L 286 456.737 286 444.535 C 286 437.824, 286.229 432.105, 286.508 431.825 C 286.787 431.546, 288.626 431.584, 290.594 431.909 C 293.968 432.466, 294.552 433.185, 300.836 444.500 L 307.501 456.500 313.173 456.781 C 316.292 456.935, 319.080 456.679, 319.369 456.212 C 319.657 455.745, 316.566 449.769, 312.499 442.932 L 305.104 430.500 307.864 429 C 315.560 424.819, 317.985 421.084, 317.994 413.398 C 318.002 406.913, 315.133 402.437, 309 399.363 C 305.070 397.394, 302.677 397.069, 290.122 396.804 C 281.061 396.612, 275.601 396.874, 275.356 397.512 M 475.077 396.952 C 474.297 397.434, 474.048 406.349, 474.235 427.069 L 474.500 456.500 492.500 456.500 L 510.500 456.500 510.500 452 L 510.500 447.500 498 447 L 485.500 446.500 485.233 421.750 C 485.085 408.137, 484.635 396.960, 484.233 396.910 C 479.886 396.376, 475.980 396.394, 475.077 396.952 M 328 427 L 328 457 333.500 457 L 339 457 339 427 L 339 397 333.500 397 L 328 397 328 427 M 428.538 408.205 C 425.860 414.417, 420.143 427.562, 415.834 437.415 C 411.525 447.268, 408 455.705, 408 456.165 C 408 456.624, 410.661 457, 413.913 457 L 419.825 457 422.500 450 L 425.175 443 437.999 443 L 450.823 443 453.570 450 L 456.316 457 461.689 457 C 465.094 457, 467.240 456.537, 467.547 455.737 C 467.814 455.043, 462.487 441.655, 455.709 425.987 L 443.387 397.500 438.397 397.205 L 433.408 396.910 428.538 408.205 M 286 414 L 286 422 293.050 422 C 301.182 422, 305.668 420.173, 306.594 416.482 C 308.356 409.462, 303.712 406, 292.532 406 L 286 406 286 414 M 437.102 413 C 436.498 414.375, 434.483 419.325, 432.626 424 L 429.248 432.500 437.248 432.792 C 441.648 432.953, 445.477 432.856, 445.756 432.577 C 446.035 432.298, 444.450 427.217, 442.232 421.285 C 438.501 411.303, 438.119 410.686, 437.102 413 M 28.032 482.179 C 23.275 485.413, 22.238 489.427, 24.703 495.078 L 26.610 499.451 22.805 503.071 C 19.563 506.155, 19 507.319, 19 510.941 C 19 516.805, 21.540 520.659, 26.707 522.632 C 31.982 524.647, 38.171 523.989, 42.240 520.981 L 45.172 518.813 47.400 520.906 C 49.026 522.434, 50.933 523, 54.451 523 L 59.274 523 54.598 518.002 L 49.923 513.003 53.924 507.111 C 57.782 501.430, 57.847 501.205, 55.713 500.840 C 51.615 500.140, 49.512 501.064, 47.221 504.571 L 44.942 508.060 42.011 504.851 L 39.080 501.642 42.611 498.571 C 45.257 496.270, 46.278 494.470, 46.684 491.392 C 47.150 487.855, 46.819 486.829, 44.303 484.013 C 41.932 481.360, 40.450 480.656, 36.441 480.282 C 32.416 479.907, 30.857 480.259, 28.032 482.179 M 452.010 481.316 C 450.091 481.927, 446.666 484.281, 444.400 486.548 C 434.910 496.037, 436.543 512.515, 447.753 520.394 C 453.138 524.179, 461.828 525.101, 468.412 522.587 C 474.078 520.423, 476.743 517.600, 475.048 515.557 C 473.009 513.101, 470.026 512.667, 467.969 514.528 C 465.150 517.080, 458.193 517.466, 454 515.305 C 445.339 510.839, 444.536 495.534, 452.652 489.614 C 456.669 486.683, 463.215 486.339, 467.446 488.835 L 470.980 490.921 473.740 488.511 L 476.500 486.101 474.036 484.300 C 468.363 480.156, 459.445 478.948, 452.010 481.316 M 79 502 L 79 523 82.475 523 L 85.950 523 86.225 506.750 L 86.500 490.500 92.470 506.797 C 98.440 523.091, 98.441 523.094, 101.389 522.797 C 104.219 522.512, 104.559 521.901, 109.918 507.504 L 115.500 492.507 116 507.504 L 116.500 522.500 120.250 522.810 L 124 523.121 124 502.060 L 124 481 118.126 481 L 112.252 481 106.910 495.653 C 101.808 509.647, 101.517 510.176, 100.434 507.403 C 99.811 505.806, 97.384 499.212, 95.042 492.750 L 90.782 481 84.891 481 L 79 481 79 502 M 145.083 483.250 C 144.606 484.488, 140.755 493.375, 136.524 503 C 132.294 512.625, 128.597 521.063, 128.309 521.750 C 127.936 522.642, 129.068 523, 132.257 523 C 136.623 523, 136.768 522.896, 138.417 518.577 L 140.106 514.154 147.303 513.827 C 157.927 513.344, 158.410 513.512, 160.147 518.295 C 161.574 522.223, 161.949 522.520, 165.837 522.807 C 168.797 523.026, 170 522.729, 170 521.779 C 170 521.044, 168.038 515.956, 165.639 510.472 C 163.241 504.987, 159.367 496.113, 157.030 490.750 C 152.847 481.149, 152.730 481, 149.366 481 C 146.748 481, 145.748 481.525, 145.083 483.250 M 175 501.940 L 175 523 178.481 523 C 181.260 523, 182.073 522.546, 182.515 520.750 C 182.820 519.513, 182.941 510.175, 182.784 500 L 182.500 481.500 178.750 481.190 L 175 480.879 175 501.940 M 191 502 L 191 523 194.975 523 L 198.949 523 199.225 507.516 L 199.500 492.033 209 507.512 L 218.500 522.991 223.250 522.996 L 228 523 228 502 L 228 481 224.500 481 L 221 481 220.968 496.250 C 220.931 514.026, 221.997 514.214, 209.676 494.258 L 201.500 481.016 196.250 481.008 L 191 481 191 502 M 233 484.452 L 233 487.905 239.250 488.202 L 245.500 488.500 245.774 505.809 L 246.048 523.118 249.774 522.809 L 253.500 522.500 253.774 505.250 L 254.047 488 260.024 488 L 266 488 266 484.500 L 266 481 249.500 481 L 233 481 233 484.452 M 271 502 L 271 523 285.500 523 L 300 523 300 519.500 L 300 516 289.500 516 L 279 516 279 510.538 L 279 505.075 288.250 504.788 L 297.500 504.500 297.500 501.500 L 297.500 498.500 288.250 498.212 L 279 497.925 279 492.999 L 279 488.072 288.750 487.786 L 298.500 487.500 298.813 484.250 L 299.127 481 285.063 481 L 271 481 271 502 M 307 502.060 L 307 523.121 310.750 522.810 L 314.500 522.500 314.500 507.750 C 314.500 499.637, 314.752 492.999, 315.059 493 C 315.367 493, 317.724 496.488, 320.298 500.750 C 322.871 505.012, 326.900 511.650, 329.251 515.500 L 333.524 522.500 338.762 522.802 L 344 523.105 344 502.052 L 344 481 340.026 481 L 336.052 481 335.776 496.146 L 335.500 511.293 326.121 496.146 L 316.743 481 311.871 481 L 307 481 307 502.060 M 364.642 483.750 C 362.707 487.526, 348 521.700, 348 522.420 C 348 522.739, 349.816 523, 352.036 523 C 355.871 523, 356.168 522.775, 358.016 518.462 L 359.961 513.924 369.140 514.212 L 378.319 514.500 379.866 518.750 C 381.367 522.872, 381.546 523, 385.814 523 C 389.581 523, 390.122 522.748, 389.576 521.250 C 389.225 520.288, 385.239 510.847, 380.719 500.271 L 372.500 481.042 369.276 481.021 C 366.756 481.005, 365.744 481.601, 364.642 483.750 M 394 502 L 394 523 397.975 523 L 401.949 523 402.225 507.544 L 402.500 492.088 411.965 507.544 L 421.429 523 426.215 523 L 431 523 431 502 L 431 481 427.607 481 C 425.741 481, 424.039 481.563, 423.825 482.250 C 423.611 482.938, 423.465 489.462, 423.500 496.750 C 423.536 504.038, 423.279 510, 422.930 510 C 422.581 510, 418.788 504.262, 414.501 497.250 C 410.215 490.238, 406.028 483.712, 405.199 482.750 C 404.148 481.532, 402.218 481, 398.845 481 L 394 481 394 502 M 481 502 L 481 523 495.500 523 L 510 523 510 519.500 L 510 516 499.500 516 L 489 516 489 510.538 L 489 505.075 498.250 504.788 L 507.500 504.500 507.813 501.250 L 508.127 498 498.563 498 L 489 498 489 493 L 489 488 499 488 L 509 488 509 484.500 L 509 481 495 481 L 481 481 481 502 M 32.200 487.200 C 30.369 489.031, 30.769 493.481, 32.943 495.448 C 34.807 497.136, 34.987 497.104, 37.443 494.648 C 40.472 491.619, 40.651 489.899, 38.171 487.655 C 36.012 485.701, 33.863 485.537, 32.200 487.200 M 146.666 497.566 C 145.200 501.403, 144 505.119, 144 505.823 C 144 506.741, 145.492 507.019, 149.250 506.802 C 155.290 506.455, 155.280 506.496, 151.574 496.585 L 149.332 490.590 146.666 497.566 M 365.998 498.250 C 364.749 501.688, 363.516 505.063, 363.257 505.750 C 362.916 506.655, 364.290 507, 368.226 507 C 371.219 507, 373.906 506.760, 374.199 506.467 C 374.839 505.827, 369.766 492.031, 368.884 492.013 C 368.545 492.006, 367.246 494.813, 365.998 498.250 M 28.571 506.571 C 26.241 508.902, 26.548 514.570, 29.102 516.359 C 32.012 518.397, 40 516.645, 40 513.968 C 40 512.444, 32.907 505, 31.455 505 C 30.733 505, 29.436 505.707, 28.571 506.571" fill="#eaf2f9" fill-rule="evenodd"/></svg>
